<svg width="1200" height="900" viewBox="0 0 1200 900" fill="none" xmlns="http://www.w3.org/2000/svg">
  <rect width="1200" height="900" rx="36" fill="#F6F1E8"/>
  <rect x="120" y="120" width="960" height="660" rx="32" fill="#FFFCF7" stroke="#E8DED0" stroke-width="2"/>

  <rect x="180" y="188" width="220" height="44" rx="22" fill="#E4F2F0"/>
  <text x="220" y="217" fill="#147A73" font-family="Avenir Next, Arial, sans-serif" font-size="22" font-weight="700" letter-spacing="1">CHILD-SAFE AI</text>

  <text x="180" y="330" fill="#1F2A24" font-family="Avenir Next, Arial, sans-serif" font-size="68" font-weight="700">
    <tspan x="180" y="330">Children and AI,</tspan>
    <tspan x="180" y="408">with safety first</tspan>
  </text>

  <text x="180" y="500" fill="#5F6D66" font-family="Avenir Next, Arial, sans-serif" font-size="30" font-weight="500">
    <tspan x="180" y="500">Survey-based research across children, parents,</tspan>
    <tspan x="180" y="544">and educators.</tspan>
  </text>

  <g transform="translate(820 255)">
    <rect width="170" height="170" rx="32" fill="#EEF6F4"/>
    <path d="M85 24L132 46V96C132 145 98 177 85 182C72 177 38 145 38 96V46L85 24Z" fill="#147A73"/>
    <path d="M84.5 64C70.4 64 59 75.4 59 89.5C59 110.3 84.5 136.5 84.5 136.5C84.5 136.5 110 110.3 110 89.5C110 75.4 98.6 64 84.5 64ZM81 103L68.5 90.5L74.1 84.9L81 91.8L95.9 76.9L101.5 82.5L81 103Z" fill="#FFFCF7"/>
  </g>

  <line x1="180" y1="626" x2="1020" y2="626" stroke="#ECE3D6" stroke-width="2"/>

  <circle cx="196" cy="695" r="8" fill="#147A73"/>
  <text x="220" y="703" fill="#1F2A24" font-family="Avenir Next, Arial, sans-serif" font-size="24" font-weight="600">Children</text>

  <circle cx="404" cy="695" r="8" fill="#EF8B42"/>
  <text x="428" y="703" fill="#1F2A24" font-family="Avenir Next, Arial, sans-serif" font-size="24" font-weight="600">Parents</text>

  <circle cx="590" cy="695" r="8" fill="#73827A"/>
  <text x="614" y="703" fill="#1F2A24" font-family="Avenir Next, Arial, sans-serif" font-size="24" font-weight="600">Educators</text>
</svg>
